<svg width="100" height="100" viewBox="0 0 100 100" fill="none" xmlns="http://www.w3.org/2000/svg">
<circle cx="50" cy="50" r="50" fill="#D6368C"/>
<path d="M22.793 66V34.7188H32.418C35.168 34.7188 37.6243 35.3418 39.7871 36.5879C41.9642 37.8197 43.6615 39.5814 44.8789 41.873C46.0964 44.1504 46.7051 46.7428 46.7051 49.6504V51.0898C46.7051 53.9974 46.1035 56.5827 44.9004 58.8457C43.7116 61.1087 42.0286 62.8633 39.8516 64.1094C37.6745 65.3555 35.2181 65.9857 32.4824 66H22.793ZM29.2383 39.9395V60.8223H32.3535C34.8743 60.8223 36.8008 59.9987 38.1328 58.3516C39.4648 56.7044 40.1452 54.3483 40.1738 51.2832V49.6289C40.1738 46.4492 39.515 44.043 38.1973 42.4102C36.8796 40.763 34.9531 39.9395 32.418 39.9395H29.2383ZM81.1875 52.4434H68.8125V60.8223H83.3359V66H62.3672V34.7188H83.293V39.9395H68.8125V47.3945H81.1875V52.4434Z" fill="black"/>
</svg>
