<svg width="127" height="137" viewBox="0 0 127 137" fill="none" xmlns="http://www.w3.org/2000/svg">
<path d="M63.5 0L126.287 34.25V102.75L63.5 137L0.713158 102.75V34.25L63.5 0Z" fill="#121BE9"/>
<path d="M63.5 10L118.493 39.25V97.75L63.5 127L8.50739 97.75V39.25L63.5 10Z" fill="black"/>
<path d="M49.7852 93H39.2383V41.8125H49.7852V93ZM70.1406 74.9648V93H59.5938V41.8125H79.5625C83.4062 41.8125 86.7812 42.5156 89.6875 43.9219C92.6172 45.3281 94.8672 47.332 96.4375 49.9336C98.0078 52.5117 98.793 55.4531 98.793 58.7578C98.793 63.7734 97.0703 67.7344 93.625 70.6406C90.2031 73.5234 85.457 74.9648 79.3867 74.9648H70.1406ZM70.1406 66.4219H79.5625C82.3516 66.4219 84.4727 65.7656 85.9258 64.4531C87.4023 63.1406 88.1406 61.2656 88.1406 58.8281C88.1406 56.3203 87.4023 54.293 85.9258 52.7461C84.4492 51.1992 82.4102 50.4023 79.8086 50.3555H70.1406V66.4219Z" fill="#121BE9"/>
</svg>
